<?xml version="1.0" standalone="no"?>
<!DOCTYPE svg PUBLIC "-//W3C//DTD SVG 20010904//EN"
 "http://www.w3.org/TR/2001/REC-SVG-20010904/DTD/svg10.dtd">
<svg version="1.0" xmlns="http://www.w3.org/2000/svg"
 width="885.000000pt" height="885.000000pt" viewBox="0 0 885.000000 885.000000"
 preserveAspectRatio="xMidYMid meet">
<metadata>
Created by potrace 1.14, written by Peter Selinger 2001-2017
</metadata>
<g transform="translate(0.000000,885.000000) scale(0.100000,-0.100000)"
fill="#000000" stroke="none">
<path d="M5790 8050 c-211 -26 -479 -103 -672 -193 l-98 -45 -27 51 c-38 69
-84 100 -142 94 -51 -6 -163 -60 -281 -138 -81 -53 -291 -219 -317 -251 -10
-11 -40 -15 -125 -17 -106 -2 -254 -13 -358 -27 l-45 -6 -21 84 c-49 189 -120
327 -186 363 -33 17 -42 18 -85 7 -26 -7 -79 -34 -118 -60 -89 -60 -253 -224
-329 -330 -72 -102 -168 -289 -200 -391 -27 -88 -11 -76 -231 -167 -499 -206
-982 -453 -1327 -677 -63 -40 -129 -89 -147 -108 -46 -49 -80 -119 -90 -191
-9 -61 -6 -416 4 -608 30 -516 146 -1138 290 -1550 20 -58 39 -114 42 -125 3
-16 -27 -52 -132 -155 -383 -377 -653 -750 -904 -1245 -124 -243 -191 -397
-191 -436 0 -74 41 -103 215 -157 465 -143 945 -241 1390 -284 178 -17 880
-17 1054 0 l134 13 90 -96 c90 -97 308 -296 441 -404 194 -157 516 -369 704
-463 112 -56 130 -62 200 -66 69 -4 86 -1 154 26 91 37 259 127 394 212 378
238 773 583 1054 921 214 258 445 604 561 846 34 69 45 83 64 83 19 0 241 17
455 34 57 5 167 40 630 199 339 117 543 191 815 294 116 45 219 83 231 87 11
3 35 20 52 37 54 53 41 138 -27 173 -27 14 -120 31 -561 101 -371 59 -477 75
-645 99 -88 12 -160 24 -159 27 0 2 30 94 66 204 208 632 317 1335 318 2040 0
212 -9 266 -59 343 -38 60 -70 90 -146 137 -33 21 -62 39 -64 41 -1 1 20 41
48 88 186 307 292 731 261 1049 -19 209 -51 311 -104 336 -25 12 -38 10 -115
-10 -71 -20 -108 -24 -211 -23 -145 1 -250 21 -488 91 -437 128 -522 144 -792
148 -107 2 -229 0 -270 -5z"/>
</g>
</svg>
